<?xml version="1.0" encoding="UTF-8"?>
<svg width="184px" height="36px" viewBox="0 0 184 36" version="1.1" xmlns="http://www.w3.org/2000/svg" xmlns:xlink="http://www.w3.org/1999/xlink">
    <!-- Generator: Sketch 50.2 (55047) - http://www.bohemiancoding.com/sketch -->
    <title>Envato Logo</title>
    <desc>Created with Sketch.</desc>
    <defs></defs>
    <g id="1.-Landing-Pages" stroke="none" stroke-width="1" fill="none" fill-rule="evenodd">
        <g id="Envato-Logo">
            <path d="M23.91,4.31 C22.99,3.8 20.34,4.11 17.17,5.1 C11.62,8.89 6.93,14.49 6.6,23.47 C6.54,23.68 5.99,23.47 5.88,23.37 C4.16033949,20.2212764 3.84108051,16.4953789 5,13.1 C5.24,12.72 4.47,12.24 4.34,12.37 C3.50707428,13.2253487 2.77250162,14.1712368 2.15,15.19 C-1.52545465,21.8036098 0.856390568,30.1445446 7.47000026,33.8199995 C14.08361,37.4954544 22.4245448,35.1136095 26.1,28.5 C30.35,20.88 26.4,5.7 23.91,4.31 Z" id="Shape" fill="#91B34C" fill-rule="nonzero"></path>
            <path d="M47.53,8 C54.35,8 59,12.07 59.94,18.93 C60.0242375,19.4959406 60.0610322,20.067931 60.05,20.64 C60.05,22.49 59.12,23.39 57.2,23.39 L39.52,23.39 C39.8074449,27.7295773 43.4516287,31.0788814 47.8,31 C50.2711456,31.031908 52.6480777,30.0529588 54.38,28.29 C54.868504,27.7618655 55.5507393,27.4550402 56.27,27.44 C56.8802664,27.4122458 57.4747996,27.6383383 57.9124151,28.0645872 C58.3500306,28.490836 58.5916878,29.0792146 58.58,29.69 C58.5523812,30.420932 58.2486292,31.1142014 57.73,31.63 C55.1224461,34.2808584 51.515158,35.7048835 47.8,35.55 C39.69,35.55 34.03,29.85 34.03,21.83 C34.03,13.81 39.71,8 47.53,8 Z M47.53,12.29 L47.53,12.26 C43.4230289,12.1869552 39.9453121,15.2734289 39.53,19.36 L54.67,19.36 C54.53,14.99 51.77,12.29 47.53,12.29 Z M76.93,8 C84.15,8 86.72,13.48 86.72,18.63 L86.72,32.32 C86.8077234,33.3364205 86.3150556,34.3154922 85.4465377,34.8507331 C84.5780198,35.385974 83.4819802,35.385974 82.6134623,34.8507331 C81.7449444,34.3154922 81.2522766,33.3364205 81.34,32.32 L81.34,20.32 C81.34,15.08 79.56,12.53 75.56,12.53 C71.56,12.53 68.75,15.98 68.75,20.93 L68.75,32.28 C68.8377234,33.2964205 68.3450556,34.2754922 67.4765377,34.8107331 C66.6080198,35.345974 65.5119802,35.345974 64.6434623,34.8107331 C63.7749444,34.2754922 63.2822766,33.2964205 63.37,32.28 L63.37,11.1 C63.2694272,10.3644236 63.498331,9.6219275 63.9956225,9.07066642 C64.4929139,8.51940535 65.207985,8.21547968 65.95,8.24 C66.37,8.24 68.48,8.38 68.48,11.1 L68.48,12.88 C70.1998792,9.83795087 73.4355609,7.96929679 76.93,8 Z M111.08,8.24 C111.768234,8.21820242 112.435621,8.47786737 112.928148,8.95907212 C113.420675,9.44027687 113.695788,10.1014453 113.69,10.79 C113.669687,11.2937445 113.554329,11.7891086 113.35,12.25 L104.83,32.35 C103.82,34.76 102.17,35.27 100.95,35.27 C99.73,35.27 98.06,34.76 97.06,32.35 L88.6,12.35 C88.3795871,11.8698354 88.2636956,11.348324 88.26,10.82 C88.2927907,9.36579079 89.4956891,8.21208151 90.95,8.24 C92.2459341,8.25033183 93.3717315,9.13371302 93.69,10.39 L101,28.92 L108.4,10.39 C108.703231,9.14903188 109.802805,8.26691072 111.08,8.24 Z M126.73,8 C133.58,8 137.67,11.81 137.68,18.25 L137.68,32.53 C137.772481,33.2261056 137.559307,33.9281839 137.095399,34.4553514 C136.631492,34.982519 135.962215,35.2832266 135.26,35.28 C134.54405,35.2987234 133.854961,35.0070181 133.370057,34.4799478 C132.885152,33.9528775 132.651782,33.2419112 132.73,32.53 L132.73,31.17 C130.769605,34.0263644 127.470474,35.6645797 124.01,35.5 C119.28,35.5 114.49,32.99 114.49,27.4 C114.49,19.63 123.55,18.54 132.49,18.54 L132.49,17.95 C132.49,14.4 130.22,12.4 126.22,12.4 C124.061981,12.4341684 121.966916,13.1325236 120.22,14.4 C119.753495,14.7402409 119.196861,14.9350628 118.62,14.96 C118.056925,14.9601612 117.517605,14.7331151 117.124184,14.3302825 C116.730764,13.92745 116.516529,13.3829141 116.53,12.82 C116.527945,11.9484675 116.983519,11.139822 117.73,10.69 C120.376072,8.87672499 123.522884,7.93617778 126.73,8 Z M131.38,22.5 L131.38,22.47 C126.48,22.47 120,23 119.98,27.29 C119.98,30.93 123.94,31.21 125.15,31.21 C129.62,31.21 132.51,28.28 132.51,23.74 L132.51,22.5 L131.38,22.5 Z M151.69,13.13 L146.8,13.13 L146.8,26.46 C146.8,29.31 147.8,30.65 149.8,30.65 C150.175972,30.6436392 150.549357,30.5864541 150.91,30.48 C151.235507,30.3858455 151.571365,30.3321082 151.91,30.32 C152.484246,30.3004143 153.041015,30.5192433 153.448251,30.9245848 C153.855486,31.3299263 154.076908,31.8856685 154.06,32.46 C154.018114,33.4011643 153.438151,34.234132 152.57,34.6 C151.492169,35.028011 150.339424,35.2354371 149.18,35.21 C144.17,35.21 141.52,32.37 141.52,27 L141.52,3.78 C141.411666,2.76037283 141.894604,1.76830422 142.763959,1.22461501 C143.633314,0.680925794 144.736686,0.680925794 145.606041,1.22461501 C146.475396,1.76830422 146.958334,2.76037283 146.85,3.78 L146.85,8.68 L151.69,8.68 C152.546606,8.58036603 153.384341,8.981329 153.844029,9.71097778 C154.303717,10.4406266 154.303717,11.3693734 153.844029,12.0990222 C153.384341,12.828671 152.546606,13.229634 151.69,13.13 Z M169.49,8 C177.67,8 183.6,13.83 183.6,21.72 C183.6,29.61 177.49,35.55 169.49,35.55 C165.774604,35.609472 162.18412,34.2091832 159.49,31.65 C156.867044,29.0182023 155.423694,25.4350856 155.49,21.72 C155.49,13.77 161.35,8 169.49,8 Z M169.49,31 C173.59,31 178,28.06 178,21.73 C178,15.4 173.58,12.52 169.49,12.52 C165.4,12.52 160.99,15.4 160.99,21.73 C160.99,26.34 163.91,31 169.49,31 Z" id="Combined-Shape" fill="#000000"></path>
        </g>
    </g>
</svg>
