<svg xmlns="http://www.w3.org/2000/svg" width="16" height="14" fill="none" viewBox="0 0 16 14">
    <path fill="#5F5F5F" d="M3.461 10.129L.507 13.043l.97.957L14.7.957 13.73 0l-3.236 3.192c-.903-.426-1.89-.655-2.89-.67C3.403 2.522 0 7 0 7c.979 1.217 2.147 2.273 3.461 3.129zm4.142-6.352c.63 0 1.245.18 1.773.518L4.86 8.748c-.32-.486-.5-1.048-.523-1.628-.022-.579.114-1.153.395-1.662.28-.51.696-.934 1.2-1.23.506-.296 1.083-.452 1.67-.451zM12.598 4.2l-1.754 1.671c.177.55.194 1.136.048 1.694-.146.558-.448 1.068-.875 1.475-.427.407-.962.695-1.548.834-.586.139-1.2.123-1.777-.046L5.6 10.868c.666.215 1.364.327 2.067.332 4.27 0 7.733-4.399 7.733-4.399-.813-.978-1.755-1.852-2.802-2.6z"/>
</svg>
