<svg xmlns="http://www.w3.org/2000/svg" width="25" height="25" fill="none" viewBox="0 0 25 25">
    <rect width="15.091" height="1.5" x="5.541" y="18.078" fill="#666" rx=".75"/>
    <path fill="#666" fill-rule="evenodd" d="M6.505 4.449c-.292.293-.292.767 0 1.06l7.86 7.86c.294.293.768.293 1.061 0 .293-.292.293-.767 0-1.06l-7.86-7.86c-.293-.293-.768-.293-1.06 0z" clip-rule="evenodd"/>
    <path fill="#666" fill-rule="evenodd" d="M14.896 6.09c-.414 0-.75.335-.75.75v5.25h-5.25c-.414 0-.75.335-.75.75 0 .414.336.75.75.75h6c.414 0 .75-.336.75-.75v-6c0-.415-.336-.75-.75-.75z" clip-rule="evenodd"/>
</svg>
