<svg xmlns="http://www.w3.org/2000/svg" width="25" height="25" fill="none" viewBox="0 0 25 25">
    <path stroke="#666" stroke-linecap="round" stroke-linejoin="round" stroke-width="1.5" d="M14.541 3.035v4c0 .265.105.52.293.707.187.188.442.293.707.293h4"/>
    <path stroke="#666" stroke-linecap="round" stroke-linejoin="round" stroke-width="1.5" d="M17.541 21.035h-10c-.53 0-1.04-.21-1.414-.586-.375-.375-.586-.883-.586-1.414v-14c0-.53.21-1.039.586-1.414.375-.375.884-.586 1.414-.586h7l5 5v11c0 .53-.21 1.04-.586 1.414-.375.375-.884.586-1.414.586zM14.541 12.035l-4 4m0-4l4 4-4-4z"/>
</svg>
