<svg xmlns="http://www.w3.org/2000/svg" width="8" height="8" fill="none">
  <path fill="#B8B8B8" fill-rule="evenodd" d="M3.07 4L.13 1.05C-.02.91-.04.7.07.6L.6.07c.11-.11.32-.09.46.06L4 3.07 6.95.13c.14-.15.35-.17.46-.06l.52.52c.11.11.09.32-.06.46L4.93 4l2.94 2.94c.15.15.17.36.06.47l-.52.52c-.11.11-.32.09-.46-.06L4 4.93 1.05 7.87c-.14.15-.35.17-.46.06L.07 7.4c-.11-.11-.09-.32.06-.46L3.07 4z" clip-rule="evenodd"/>
  <mask id="a" width="8" height="8" x="0" y="0" maskUnits="userSpaceOnUse">
    <path fill="#fff" fill-rule="evenodd" d="M3.07 4L.13 1.05C-.02.91-.04.7.07.6L.6.07c.11-.11.32-.09.46.06L4 3.07 6.95.13c.14-.15.35-.17.46-.06l.52.52c.11.11.09.32-.06.46L4.93 4l2.94 2.94c.15.15.17.36.06.47l-.52.52c-.11.11-.32.09-.46-.06L4 4.93 1.05 7.87c-.14.15-.35.17-.46.06L.07 7.4c-.11-.11-.09-.32.06-.46L3.07 4z" clip-rule="evenodd"/>
  </mask>
  <g mask="url(#a)">
    <path fill="#969696" d="M0 0h8.73v8.73H0z"/>
  </g>
</svg>