<svg xmlns="http://www.w3.org/2000/svg" width="13" height="12" fill="none" viewBox="0 0 13 12">
    <path fill="#666" d="M5.146 1.013c-.125 0-.244.05-.332.138-.088.088-.137.207-.137.331 0 .125.05.244.137.332.088.088.207.137.332.137h2.556c.124 0 .244-.05.332-.137.088-.088.137-.207.137-.332 0-.124-.05-.243-.137-.331-.088-.088-.208-.138-.332-.138H5.146zM10.34 2.514H2.507c-.124 0-.243.05-.331.137-.088.088-.138.207-.138.332 0 .124.05.243.138.331.088.088.207.138.331.138h.47l.504 5.605c.03.352.19.68.451.92.26.239.602.37.956.37H7.96c.354 0 .695-.131.956-.37.26-.24.422-.568.451-.92l.504-5.605h.47c.124 0 .243-.05.33-.138.089-.088.138-.207.138-.331 0-.125-.05-.244-.137-.332-.088-.088-.207-.137-.332-.137zM8.43 8.974c-.009.119-.062.23-.15.31-.086.08-.2.125-.32.124H4.889c-.119 0-.233-.044-.32-.124s-.14-.191-.15-.31l-.492-5.522h4.995L8.43 8.975z"/>
</svg>
