<svg xmlns="http://www.w3.org/2000/svg" width="13" height="12" fill="none" viewBox="0 0 13 12">
    <path fill="#666" fill-rule="evenodd" d="M4.967 2.051h2.072c.86 0 1.556.695 1.556 1.558V6.71h1.037V3.609c0-1.436-1.16-2.595-2.593-2.595H4.967V2.05zm2.072 7.26H4.967c-.858 0-1.557-.7-1.557-1.556V5.162H2.373v2.593c0 1.428 1.163 2.592 2.594 2.592h2.072V9.31z" clip-rule="evenodd"/>
    <path fill="#666" fill-rule="evenodd" d="M3.258 4.277c-.202-.203-.53-.203-.733 0L.969 5.832c-.202.203-.202.531 0 .733.203.203.531.203.734 0l1.189-1.144L4.08 6.565c.202.203.53.203.733 0 .202-.202.202-.53 0-.733L3.258 4.277zM9.114 5.94l-1.19-1.145c-.202-.202-.53-.202-.733 0-.202.203-.202.531 0 .734l1.556 1.555c.202.203.53.203.733 0l1.556-1.555c.202-.203.202-.531 0-.734-.203-.202-.531-.202-.733 0L9.113 5.94z" clip-rule="evenodd"/>
</svg>
