
<svg width="24px" height="24px" viewBox="0 0 24 24" version="1.1" xmlns="http://www.w3.org/2000/svg" xmlns:xlink="http://www.w3.org/1999/xlink">
    <!-- Generator: Sketch 50.2 (55047) - http://www.bohemiancoding.com/sketch -->
    <desc>Created with Sketch.</desc>
    <defs>
        <path d="M23.671875,20.7111111 L18.9984375,16.0467836 C18.7875,15.8362573 18.5015625,15.7192982 18.2015625,15.7192982 L17.4375,15.7192982 C18.73125,14.0678363 19.5,11.9906433 19.5,9.73099415 C19.5,4.35555556 15.1359375,0 9.75,0 C4.3640625,0 0,4.35555556 0,9.73099415 C0,15.1064327 4.3640625,19.4619883 9.75,19.4619883 C12.0140625,19.4619883 14.0953125,18.6947368 15.75,17.4035088 L15.75,18.1660819 C15.75,18.4654971 15.8671875,18.7508772 16.078125,18.9614035 L20.7515625,23.625731 C21.1921875,24.0654971 21.9046875,24.0654971 22.340625,23.625731 L23.6671875,22.3017544 C24.1078125,21.8619883 24.1078125,21.1508772 23.671875,20.7111111 Z M9.75,15.7192982 C6.4359375,15.7192982 3.75,13.0432749 3.75,9.73099415 C3.75,6.42339181 6.43125,3.74269006 9.75,3.74269006 C13.0640625,3.74269006 15.75,6.41871345 15.75,9.73099415 C15.75,13.0385965 13.06875,15.7192982 9.75,15.7192982 Z" id="path-1"></path>
    </defs>
    <g id="Page-1" stroke="none" stroke-width="1" fill="none" fill-rule="evenodd">
        <g id="Icons" transform="translate(-231.000000, -455.000000)">
            <g id="Search" transform="translate(231.000000, 455.000000)">
                <mask id="mask-2" fill="white">
                    <use xlink:href="#path-1"></use>
                </mask>
                <use id="Mask" fill="#FFFFFF" fill-rule="nonzero" xlink:href="#path-1"></use>
            </g>
        </g>
    </g>
</svg>
