<svg width="14" height="16" viewBox="0 0 14 16" fill="none" xmlns="http://www.w3.org/2000/svg">
<path d="M13.4971 2.90912C13.4971 4.23356 12.4077 5.31821 11.0502 5.31821C9.69278 5.31821 8.60339 4.23356 8.60339 2.90912C8.60339 1.58467 9.69278 0.500031 11.0502 0.500031C12.4077 0.500031 13.4971 1.58467 13.4971 2.90912Z" stroke="#303030"/>
<line y1="-0.5" x2="4.28122" y2="-0.5" transform="matrix(0.860396 -0.509625 0.519379 0.854544 5.15747 6.5455)" stroke="#303030"/>
<path d="M13.4995 13.0909C13.4995 11.7665 12.4101 10.6818 11.0527 10.6818C9.69522 10.6818 8.60583 11.7665 8.60583 13.0909C8.60583 14.4154 9.69522 15.5 11.0527 15.5C12.4101 15.5 13.4995 14.4154 13.4995 13.0909Z" stroke="#303030"/>
<line y1="-0.5" x2="5.29164" y2="-0.5" transform="matrix(0.835328 0.549752 -0.559653 0.828727 4.42188 9.45453)" stroke="#303030"/>
<path d="M5.39367 8C5.39367 9.32444 4.30428 10.4091 2.94683 10.4091C1.58939 10.4091 0.5 9.32444 0.5 8C0.5 6.67555 1.58939 5.59091 2.94683 5.59091C4.30428 5.59091 5.39367 6.67555 5.39367 8Z" stroke="#303030"/>
</svg>
